<svg width="1279" height="1143" viewBox="0 0 1279 1143" fill="none" xmlns="http://www.w3.org/2000/svg">
<g clip-path="url(#clip0)">
<path d="M112.093 1123.74C112.093 1123.74 270.711 1196.27 348.966 1049.25C348.966 1049.25 379.321 1002.66 368.371 828.327L365.328 713.318C365.328 713.318 368.156 575.904 497.28 667.143L672.613 775.683C672.613 775.683 816.816 857.131 867.853 710.013C867.853 710.013 889.705 660.995 874.368 471.062C874.368 471.062 870.008 402.771 898.784 379.523C898.784 379.523 938.288 340.159 1016.99 405.163C1016.99 405.163 1195.79 554.44 1282.03 531.432C1282.03 531.432 1384.67 516.288 1381.41 379.717L1377.58 191.035C1377.58 191.035 1378.95 93.4146 1460.62 96.1458L1657.23 113.233L1664.44 31.5644L1488.15 13.6389C1488.15 13.6389 1286.56 -6.95628 1294.19 199.7L1295.63 373.994C1295.63 373.994 1293.5 474.605 1205.87 423.937L1030.48 310.009C1030.48 310.009 884.39 221.365 805.95 352.204C805.95 352.204 785.086 380.864 790.95 476.124L791.746 632.444C791.746 632.444 790.201 745.641 700.685 687.776L519.852 573.826C519.852 573.826 388.322 490.629 307.964 608.888C307.964 608.888 277.468 641.112 284.062 748.931L285.436 937.599C285.436 937.599 292.984 1074.19 171.23 1055.72C171.23 1055.72 125.243 1052.54 -93.8966 925.314L-130.786 1000.61L112.093 1123.74Z" fill="url(#paint0_linear)"/>
</g>
<defs>
<linearGradient id="paint0_linear" x1="-268" y1="1156.89" x2="1279" y2="1156.89" gradientUnits="userSpaceOnUse">
<stop stop-color="#59E0E1"/>
<stop offset="0.325444" stop-color="#59FFFF"/>
<stop offset="0.653955" stop-color="#2CF2AE"/>
<stop offset="1" stop-color="#2CD9A8"/>
</linearGradient>
<clipPath id="clip0">
<rect width="1279" height="1143" fill="white"/>
</clipPath>
</defs>
</svg>