<svg height="1152" viewBox="0 0 1152 1152" width="1152" xmlns="http://www.w3.org/2000/svg"><g fill="none" fill-rule="evenodd" stroke="#38b449"><circle cx="576" cy="576" opacity=".1" r="50"/><circle cx="576" cy="576" opacity=".2" r="75"/><circle cx="576" cy="576" opacity=".3" r="100"/><circle cx="576" cy="576" opacity=".4" r="125"/><circle cx="576" cy="576" opacity=".5" r="150"/><circle cx="576" cy="576" opacity=".6" r="175"/><circle cx="576" cy="576" opacity=".7" r="200"/><circle cx="576" cy="576" opacity=".8" r="225"/><circle cx="576" cy="576" opacity=".9" r="250"/><circle cx="576" cy="576" r="275"/><circle cx="576" cy="576" opacity=".9" r="300"/><circle cx="576" cy="576" opacity=".8" r="325"/><circle cx="576" cy="576" opacity=".7" r="350"/><circle cx="576" cy="576" opacity=".6" r="375"/><circle cx="576" cy="576" opacity=".7" r="400"/><circle cx="576" cy="576" opacity=".6" r="425" stroke-width="1.0625"/><circle cx="576" cy="576" opacity=".5" r="450" stroke-width="1.125"/><circle cx="576" cy="576" opacity=".5" r="475" stroke-width="1.1875"/><circle cx="576" cy="576" opacity=".4" r="500" stroke-width="1.25"/><circle cx="576" cy="576" opacity=".3" r="525" stroke-width="1.3125"/><circle cx="576" cy="576" opacity=".2" r="550" stroke-width="1.375"/><circle cx="576" cy="576" opacity=".1" r="575" stroke-width="1.4375"/></g></svg>