<svg xmlns="http://www.w3.org/2000/svg" width="2256" height="1283.33" viewBox="0 0 2256 1283.33"><defs><style>.cfe454b2-b1ec-4b7e-826a-682bf576c185{fill:#6f3fdc;}.\31 592f216-7564-4a6d-817f-4693ddde3a5b,.\35 8a37d0e-6312-4f36-b10a-3684d7f9f2bc,.cfe454b2-b1ec-4b7e-826a-682bf576c185,.d96369d9-d067-44d0-be49-7d49d48beef8,.dc75d8ed-619c-4d54-853f-f1088a09d15e{opacity:0.5;}.dc75d8ed-619c-4d54-853f-f1088a09d15e{fill:#05b0f1;}.\31 592f216-7564-4a6d-817f-4693ddde3a5b,.\38 8d07bec-9b6e-4bc6-90ee-951bd1fb3ded{fill:#07d1e2;}.\35 8a37d0e-6312-4f36-b10a-3684d7f9f2bc{fill:#ffa2f5;}</style></defs><title>shapes-17</title><g id="376a37dc-b319-4c49-b344-d6d79428157b" data-name="Layer 2"><g id="92d3af1b-1d6f-4a92-bf05-d8ec6b469625" data-name="Layer 1"><polygon class="cfe454b2-b1ec-4b7e-826a-682bf576c185" points="994.72 232.23 894.58 272.49 894.58 191.55 994.72 232.23"/><polygon class="cfe454b2-b1ec-4b7e-826a-682bf576c185" points="1941.46 244.66 2176.07 150.34 2176.07 339.98 1941.46 244.66"/><polygon class="dc75d8ed-619c-4d54-853f-f1088a09d15e" points="309.67 1246.57 241.89 1077.99 378.16 1077.99 309.67 1246.57"/><path class="cfe454b2-b1ec-4b7e-826a-682bf576c185" d="M1603.08,812.61a16.76,16.76,0,0,1,12,4.58,15.18,15.18,0,0,1,4.81,11.47,14.93,14.93,0,0,1-4.85,11.42,17.24,17.24,0,0,1-12.23,4.52,16.26,16.26,0,0,1-11.74-4.52,15.07,15.07,0,0,1-4.7-11.33,15.41,15.41,0,0,1,4.73-11.56A16.5,16.5,0,0,1,1603.08,812.61Z"/><path class="1592f216-7564-4a6d-817f-4693ddde3a5b" d="M1677.15,1205.76a12.22,12.22,0,0,1,8.77,3.34,11.07,11.07,0,0,1,3.5,8.36,10.88,10.88,0,0,1-3.54,8.32,12.57,12.57,0,0,1-8.92,3.3,11.85,11.85,0,0,1-8.56-3.3,11,11,0,0,1-3.42-8.26,11.23,11.23,0,0,1,3.45-8.43A12,12,0,0,1,1677.15,1205.76Z"/><path class="1592f216-7564-4a6d-817f-4693ddde3a5b" d="M142.49,197.25a6.11,6.11,0,0,1,4.39,1.67,5.53,5.53,0,0,1,1.75,4.18,5.44,5.44,0,0,1-1.77,4.16,6.29,6.29,0,0,1-4.46,1.65,5.93,5.93,0,0,1-4.28-1.65,5.49,5.49,0,0,1-1.71-4.13,5.62,5.62,0,0,1,1.72-4.21A6,6,0,0,1,142.49,197.25Z"/><path class="58a37d0e-6312-4f36-b10a-3684d7f9f2bc" d="M388.55,307.75q10.66,0,17.74,6.75a22.38,22.38,0,0,1,7.09,16.91,22,22,0,0,1-7.15,16.83q-7.15,6.66-18,6.66a24,24,0,0,1-17.31-6.66,22.22,22.22,0,0,1-6.92-16.7,22.72,22.72,0,0,1,7-17Q377.9,307.76,388.55,307.75Z"/><path class="58a37d0e-6312-4f36-b10a-3684d7f9f2bc" d="M1408.61,153.82a12.22,12.22,0,0,1,8.77,3.34,11.07,11.07,0,0,1,3.5,8.36,10.88,10.88,0,0,1-3.54,8.32,12.57,12.57,0,0,1-8.92,3.3,11.85,11.85,0,0,1-8.56-3.3,11,11,0,0,1-3.42-8.26,11.23,11.23,0,0,1,3.45-8.43A12,12,0,0,1,1408.61,153.82Z"/><g class="d96369d9-d067-44d0-be49-7d49d48beef8"><polygon class="88d07bec-9b6e-4bc6-90ee-951bd1fb3ded" points="2256 220.74 2125.74 272.82 2256 325.24 2256 220.74"/><polygon class="88d07bec-9b6e-4bc6-90ee-951bd1fb3ded" points="2256 325.01 2125.74 377.08 2256 429.5 2256 325.01"/></g><g class="d96369d9-d067-44d0-be49-7d49d48beef8"><polygon class="88d07bec-9b6e-4bc6-90ee-951bd1fb3ded" points="576.89 217.67 642.02 191.63 576.89 165.42 576.89 217.67"/><polygon class="88d07bec-9b6e-4bc6-90ee-951bd1fb3ded" points="576.89 165.54 642.02 139.5 576.89 113.29 576.89 165.54"/></g><path class="dc75d8ed-619c-4d54-853f-f1088a09d15e" d="M459.74,959.21q12.73,0,21.2,8.06a26.75,26.75,0,0,1,8.47,20.21,26.31,26.31,0,0,1-8.55,20.12q-8.55,8-21.56,8-12.42,0-20.69-8a26.55,26.55,0,0,1-8.27-20q0-12.31,8.33-20.37T459.74,959.21Zm.31,7.47q-9.43,0-15.5,5.9a20.09,20.09,0,0,0-6.07,15.06,19.74,19.74,0,0,0,6.09,14.79,22.61,22.61,0,0,0,30.59-.12,20.12,20.12,0,0,0,6.15-15,19.65,19.65,0,0,0-6.15-14.69A20.88,20.88,0,0,0,460.06,966.68Z"/><path class="1592f216-7564-4a6d-817f-4693ddde3a5b" d="M619.5,1238.37a22.42,22.42,0,0,1,16.09,6.12,20.3,20.3,0,0,1,6.43,15.34,20,20,0,0,1-6.49,15.27q-6.49,6-16.36,6a21.75,21.75,0,0,1-15.71-6,20.15,20.15,0,0,1-6.28-15.15,20.61,20.61,0,0,1,6.32-15.46Q609.83,1238.37,619.5,1238.37Zm.24,5.67a16.18,16.18,0,0,0-11.77,4.48,15.25,15.25,0,0,0-4.61,11.43,15,15,0,0,0,4.62,11.22,17.16,17.16,0,0,0,23.22-.09,15.27,15.27,0,0,0,4.67-11.37,14.91,14.91,0,0,0-4.67-11.15A15.85,15.85,0,0,0,619.74,1244Z"/><polygon class="58a37d0e-6312-4f36-b10a-3684d7f9f2bc" points="1222.99 1235.34 1222.99 1225.36 1157.43 1199.5 1157.43 1209.48 1222.99 1235.34"/><polygon class="58a37d0e-6312-4f36-b10a-3684d7f9f2bc" points="1222.99 1283.33 1222.99 1273.35 1157.43 1247.48 1157.43 1257.47 1222.99 1283.33"/><polygon class="cfe454b2-b1ec-4b7e-826a-682bf576c185" points="1825.85 609.6 1813.72 609.6 1782.29 689.28 1794.42 689.28 1825.85 609.6"/><polygon class="cfe454b2-b1ec-4b7e-826a-682bf576c185" points="1884.18 609.6 1872.05 609.6 1840.61 689.28 1852.74 689.28 1884.18 609.6"/><polygon class="dc75d8ed-619c-4d54-853f-f1088a09d15e" points="1770.12 242.87 1770.12 234.42 1714.64 212.53 1714.64 220.98 1770.12 242.87"/><polygon class="dc75d8ed-619c-4d54-853f-f1088a09d15e" points="1770.12 283.48 1770.12 275.03 1714.64 253.15 1714.64 261.59 1770.12 283.48"/><rect class="cfe454b2-b1ec-4b7e-826a-682bf576c185" x="88.25" y="544.07" width="145.21" height="145.21"/><rect class="cfe454b2-b1ec-4b7e-826a-682bf576c185" x="1877.87" y="1051.53" width="113.07" height="113.07" transform="translate(4085.75 523.75) rotate(135)"/><rect class="1592f216-7564-4a6d-817f-4693ddde3a5b" x="429.64" y="642.42" width="93.72" height="93.72" transform="translate(1300.84 839.74) rotate(135)"/><path class="58a37d0e-6312-4f36-b10a-3684d7f9f2bc" d="M2099.4,872.16l-51.59-51.59L2099.4,769,2151,820.57Zm-31-51.59,31,31,31-31-31-31Z"/><polygon class="1592f216-7564-4a6d-817f-4693ddde3a5b" points="1487.62 115.54 1603.16 0 1372.08 0 1487.62 115.54"/><polygon class="dc75d8ed-619c-4d54-853f-f1088a09d15e" points="434.57 0 410.23 61.68 425.66 61.68 449.99 0 434.57 0"/><polygon class="dc75d8ed-619c-4d54-853f-f1088a09d15e" points="360.43 0 336.09 61.68 351.51 61.68 375.85 0 360.43 0"/><polygon class="1592f216-7564-4a6d-817f-4693ddde3a5b" points="1930.63 0 1909.42 21.21 1888.2 0 1888.21 0 1874.11 0 1874.11 0 1909.42 35.3 1944.72 0 1944.72 0 1930.63 0 1930.63 0"/><path class="1592f216-7564-4a6d-817f-4693ddde3a5b" d="M2256,650.71h-.06a21,21,0,0,1-15.25-5.9,19.74,19.74,0,0,1-6.09-14.79,20.09,20.09,0,0,1,6.07-15.06q6-5.84,15.32-5.89v-7.48h-.14q-12.73,0-21.07,8.06T2226.47,630a26.55,26.55,0,0,0,8.27,20q8.27,8,20.69,8h.57Z"/><polygon class="1592f216-7564-4a6d-817f-4693ddde3a5b" points="0 333.12 0 348.2 0 348.2 22.7 370.9 0 393.6 0 393.6 0 408.68 0 408.68 37.78 370.9 0 333.12 0 333.12"/></g></g></svg>